<svg width="183" height="22" viewBox="0 0 183 22" fill="none" xmlns="http://www.w3.org/2000/svg">
<path d="M143.846 5.65753C143.343 5.45164 142.786 5.41797 142.261 5.5617C141.683 5.72885 141.169 6.06955 140.789 6.53824L140.711 6.62737C139.824 7.75724 139.642 9.62216 139.642 10.6984V20.7293H136.358V10.408C136.291 8.9532 136.777 7.52738 137.716 6.41845C138.165 5.91902 138.716 5.52333 139.331 5.25863C139.947 4.99393 140.612 4.8665 141.281 4.88511C141.9 4.85656 142.516 4.97201 143.083 5.22245C143.352 5.3397 143.608 5.48555 143.846 5.65753Z" fill="#C00000"/>
<path d="M1.86719 6.26272V20.7336H6.98547V15.0535H15.0623V10.3241H6.98547V6.68247H15.6999V1.95117H6.29255C3.14152 1.95117 1.86719 3.62059 1.86719 6.26272Z" fill="#C00000"/>
<path d="M22.3443 1.95117H17.2812V16.4613C17.2812 19.0757 18.5384 20.7288 21.659 20.7288H30.5106V15.6419H22.3443V1.95117Z" fill="#C00000"/>
<path d="M40.4881 1.53451C39.4604 1.51002 38.4538 1.83026 37.6271 2.44472C36.8004 3.05917 36.2008 3.93287 35.9227 4.92798L31.1094 20.729H36.3382L37.2313 17.5569H43.7878L44.6457 20.729H49.8745L45.0526 4.92798C44.7746 3.93303 44.175 3.05945 43.3486 2.44501C42.5221 1.83058 41.5157 1.51023 40.4881 1.53451ZM38.497 12.9627L40.2946 6.42394C40.3499 6.23227 40.4052 6.14602 40.5167 6.14602C40.6282 6.14602 40.6835 6.23035 40.7378 6.42394L42.5097 12.9627H38.497Z" fill="#C00000"/>
<path d="M58.8541 20.7037C53.185 20.7037 49.0703 16.6423 49.0703 11.0485C49.0703 5.62242 53.0792 1.5332 58.3966 1.5332C61.0406 1.5332 63.3186 2.48004 64.9846 4.27117C66.5449 5.95592 67.4037 8.23101 67.4037 10.692V12.4544H54.485C54.9292 14.5014 56.5952 15.8086 58.8122 15.8086C60.6317 15.8086 62.1119 14.9336 62.8706 13.4127L62.9917 13.1684L67.3122 15.3543L67.1988 15.5977C65.6108 18.8887 62.6466 20.7037 58.8541 20.7037ZM61.8489 9.10788C61.5219 7.53526 60.1332 6.46384 58.3595 6.46384C56.5857 6.46384 55.1837 7.51513 54.7233 9.11076L61.8489 9.10788Z" fill="#C00000"/>
<path d="M76.189 2.51265C75.2701 3.04359 74.4917 3.78908 73.9197 4.68615V1.94531H68.9844V20.7287H73.9197V9.8995C74.0804 8.92136 74.4207 8.19142 74.9405 7.7097C75.6934 7.00692 76.8105 6.65553 78.2916 6.65553H79.5383V1.67315C78.3677 1.65014 77.212 1.93982 76.189 2.51265Z" fill="#C00000"/>
<path d="M140.856 13.3983C140.948 13.3987 141.038 13.3713 141.115 13.3197C141.172 13.2813 141.221 13.2305 141.256 13.1711C141.292 13.1116 141.314 13.045 141.321 12.9759C141.327 12.9069 141.319 12.8372 141.296 12.7719C141.272 12.7066 141.235 12.6472 141.186 12.5982C141.138 12.5491 141.079 12.5116 141.014 12.4883C140.949 12.4649 140.879 12.4564 140.811 12.4632C140.742 12.4701 140.676 12.4922 140.617 12.528C140.557 12.5637 140.507 12.6122 140.469 12.67C140.422 12.7405 140.395 12.8224 140.391 12.907C140.387 12.9916 140.406 13.0758 140.446 13.1505C140.485 13.2252 140.544 13.2877 140.617 13.3313C140.689 13.375 140.771 13.3981 140.856 13.3983Z" fill="#C00000"/>
<path d="M109.2 1.50439C107.931 1.46737 106.669 1.69717 105.494 2.17905C104.319 2.66093 103.257 3.38427 102.376 4.30273C101.495 5.19359 100.803 6.25547 100.343 7.42373C99.8825 8.59199 99.6635 9.8422 99.699 11.0983C99.6669 12.366 99.8876 13.6274 100.348 14.808C100.809 15.9886 101.5 17.0646 102.38 17.9724C104.22 19.7331 106.663 20.7151 109.204 20.7151C111.744 20.7151 114.187 19.7331 116.027 17.9724C116.908 17.0654 117.601 15.9917 118.066 14.8136C118.531 13.6354 118.759 12.3762 118.737 11.1088C118.757 9.85192 118.527 8.60362 118.062 7.43684C117.597 6.27006 116.905 5.20819 116.027 4.31327C115.15 3.38968 114.088 2.66224 112.913 2.17829C111.737 1.69434 110.473 1.46472 109.204 1.50439H109.2ZM113.626 15.4903C113.06 16.106 112.373 16.5973 111.609 16.9333C110.844 17.2693 110.019 17.4428 109.185 17.4428C108.351 17.4428 107.526 17.2693 106.761 16.9333C105.997 16.5973 105.31 16.106 104.744 15.4903C104.157 14.9254 103.693 14.2445 103.38 13.4905C103.067 12.7365 102.913 11.9256 102.927 11.1088C102.913 10.2971 103.065 9.491 103.373 8.74082C103.682 7.99064 104.141 7.31241 104.722 6.7484C105.289 6.13448 105.977 5.6448 106.741 5.30996C107.505 4.97511 108.33 4.80229 109.163 4.80229C109.997 4.80229 110.821 4.97511 111.585 5.30996C112.349 5.6448 113.037 6.13448 113.604 6.7484C114.196 7.30681 114.665 7.98287 114.982 8.73358C115.3 9.48428 115.458 10.2932 115.448 11.1088C115.463 11.9262 115.308 12.7378 114.995 13.4921C114.681 14.2464 114.215 14.9269 113.626 15.4903Z" fill="#2E3E77"/>
<path d="M147.065 3.74825C146.369 3.01125 145.524 2.43307 144.587 2.0528C143.649 1.67254 142.642 1.49905 141.632 1.54408C140.249 1.54032 138.885 1.87236 137.656 2.512C136.511 3.0763 135.554 3.96253 134.901 5.06309C134.426 3.98225 133.613 3.08665 132.586 2.512C131.523 1.89394 130.315 1.57391 129.087 1.58529C127.934 1.55079 126.794 1.83521 125.791 2.40754C124.81 2.97734 124.012 3.81813 123.491 4.83021V1.95041H120.242V20.7261H123.559V10.5122C123.495 9.01348 124.013 7.54844 125.005 6.42776C125.451 5.9201 126.004 5.51762 126.622 5.24895C127.241 4.98029 127.911 4.85204 128.585 4.87334C129.207 4.84654 129.826 4.96499 130.395 5.21938C130.964 5.47378 131.466 5.85721 131.863 6.33959C132.732 7.5115 133.162 8.95478 133.076 10.4144V20.728H136.363V10.4144C136.298 8.96014 136.785 7.53523 137.724 6.42776C138.173 5.9285 138.723 5.5329 139.339 5.26819C139.954 5.00348 140.618 4.87597 141.287 4.89442C141.905 4.86667 142.521 4.98183 143.088 5.23105C143.655 5.48026 144.157 5.85687 144.556 6.33192C145.411 7.48438 145.832 8.90306 145.748 10.3378V20.73H149.067V9.61326C149.189 7.47015 148.47 5.3643 147.065 3.74825Z" fill="#2E3E77"/>
<path d="M163.481 16.7678C162.399 17.1275 161.268 17.316 160.129 17.3266C158.557 17.4211 157.007 16.9229 155.78 15.9293C154.799 15.1187 154.154 13.9697 153.969 12.7064H168.436C168.494 11.8133 168.531 10.7466 168.531 10.4802C168.596 9.2902 168.408 8.09997 167.979 6.98884C167.551 5.8777 166.891 4.87118 166.045 4.03636C165.22 3.20343 164.232 2.5511 163.144 2.12034C162.056 1.68957 160.891 1.48967 159.722 1.53319C158.487 1.4903 157.257 1.70888 156.111 2.17478C154.965 2.64067 153.93 3.34347 153.071 4.23761C151.354 6.09604 150.437 8.56191 150.521 11.0974C150.517 12.2972 150.71 13.4894 151.093 14.626C151.48 15.7428 152.057 16.7838 152.797 17.7032C153.61 18.6865 154.654 19.4498 155.836 19.9236C157.234 20.4942 158.732 20.7745 160.241 20.7478C161.699 20.7453 163.146 20.4962 164.521 20.0109C165.79 19.5785 166.98 18.9437 168.048 18.1306L166.473 15.2489C165.56 15.9086 164.551 16.421 163.481 16.7678ZM155.961 6.2712C156.996 5.31375 158.358 4.79468 159.763 4.8222C161.162 4.7732 162.523 5.28394 163.548 6.24245C164.018 6.63354 164.402 7.11807 164.677 7.66561C164.951 8.21314 165.11 8.81185 165.144 9.42412H153.965C154.252 8.17449 154.957 7.0616 155.961 6.2712Z" fill="#2E3E77"/>
<path d="M178.432 10.5808C177.68 10.1687 176.9 9.81004 176.098 9.50748L174.161 8.66511C173.737 8.51487 173.37 8.23649 173.11 7.86814C172.849 7.49979 172.708 7.05948 172.707 6.60756C172.7 6.32096 172.757 6.03648 172.874 5.77477C172.991 5.51733 173.163 5.2885 173.377 5.10393C173.893 4.67578 174.552 4.45977 175.22 4.49923C175.959 4.49234 176.688 4.67425 177.338 5.02793C177.988 5.3816 178.539 5.89544 178.937 6.52131L181.203 4.34589C180.639 3.45102 179.832 2.73658 178.878 2.28643C177.883 1.81453 176.795 1.57099 175.695 1.57343C174.168 1.44301 172.647 1.87903 171.419 2.79914C170.315 3.82162 169.66 5.24261 169.597 6.75035C169.548 7.64643 169.755 8.53789 170.194 9.31916C170.633 10.1004 171.286 10.7388 172.075 11.1587C172.409 11.3504 173.13 11.6752 174.205 12.1343C175.28 12.5933 176.142 12.9632 176.375 13.1099C177.424 13.6552 178.311 14.2215 178.311 15.1482C178.312 15.482 178.235 15.8113 178.086 16.1096C177.937 16.4079 177.72 16.6669 177.453 16.8656C176.816 17.3471 176.033 17.5919 175.236 17.5585C174.385 17.5423 173.555 17.2914 172.836 16.833C172.034 16.3348 171.381 15.6266 170.948 14.7841L168.445 16.7324C169.138 17.9781 170.138 19.0228 171.35 19.7655C172.493 20.408 173.781 20.744 175.09 20.7411C176.724 20.8042 178.324 20.2582 179.583 19.2078C180.143 18.6575 180.587 17.9993 180.889 17.2725C181.191 16.5458 181.345 15.7653 181.34 14.9777C181.343 14.0365 181.067 13.1157 180.548 12.3324C180.029 11.5491 179.29 10.9384 178.425 10.5779L178.432 10.5808Z" fill="#2E3E77"/>
<path d="M94.8472 1.95117V9.41277H86.2995V1.95117H82.9531V20.7345H86.2967V12.7708H94.8434V20.7345H98.1793V1.95117H94.8472Z" fill="#2E3E77"/>
</svg>
